<?xml version="1.0" encoding="UTF-8"?>
<svg width="27px" height="30px" viewBox="0 0 27 30" version="1.1" xmlns="http://www.w3.org/2000/svg" xmlns:xlink="http://www.w3.org/1999/xlink">
    <title>ballot</title>
    <g id="Page-1" stroke="none" stroke-width="1" fill="none" fill-rule="evenodd">
        <g id="Case-Study-Allegria-Copy" transform="translate(-690.000000, -1058.000000)" fill="#9B98AE" fill-rule="nonzero">
            <g id="Group-19" transform="translate(0.000000, 979.000000)">
                <g id="Group-18-Copy" transform="translate(569.000000, 50.000000)">
                    <g id="Group-17" transform="translate(20.000000, 29.000000)">
                        <g id="ballot" transform="translate(101.000000, 0.000000)">
                            <path d="M8.4375,4.6875 L6.5625,4.6875 C5.52539062,4.6875 4.6875,5.53125 4.6875,6.5625 L4.6875,8.4375 C4.6875,9.46875 5.52539062,10.3125 6.5625,10.3125 L8.4375,10.3125 C9.47460938,10.3125 10.3125,9.46875 10.3125,8.4375 L10.3125,6.5625 C10.3125,5.53125 9.47460938,4.6875 8.4375,4.6875 Z M8.4375,8.4375 L6.5625,8.4375 L6.5625,6.5625 L8.4375,6.5625 L8.4375,8.4375 Z M24.375,0 L1.875,0 C0.837890625,0 0,0.84375 0,1.875 L0,28.125 C0,29.15625 0.837890625,30 1.875,30 L24.375,30 C25.4121094,30 26.25,29.15625 26.25,28.125 L26.25,1.875 C26.25,0.84375 25.4121094,0 24.375,0 Z M24.375,28.125 L1.875,28.125 L1.875,1.875 L24.375,1.875 L24.375,28.125 Z M20.15625,14.0625 L12.65625,14.0625 C12.3984375,14.0625 12.1875,14.2734375 12.1875,14.53125 L12.1875,15.46875 C12.1875,15.7265625 12.3984375,15.9375 12.65625,15.9375 L20.15625,15.9375 C20.4140625,15.9375 20.625,15.7265625 20.625,15.46875 L20.625,14.53125 C20.625,14.2734375 20.4140625,14.0625 20.15625,14.0625 Z M8.4375,19.6875 L6.5625,19.6875 C5.52539062,19.6875 4.6875,20.53125 4.6875,21.5625 L4.6875,23.4375 C4.6875,24.46875 5.52539062,25.3125 6.5625,25.3125 L8.4375,25.3125 C9.47460938,25.3125 10.3125,24.46875 10.3125,23.4375 L10.3125,21.5625 C10.3125,20.53125 9.47460938,19.6875 8.4375,19.6875 Z M8.4375,23.4375 L6.5625,23.4375 L6.5625,21.5625 L8.4375,21.5625 L8.4375,23.4375 Z M20.15625,21.5625 L12.65625,21.5625 C12.3984375,21.5625 12.1875,21.7734375 12.1875,22.03125 L12.1875,22.96875 C12.1875,23.2265625 12.3984375,23.4375 12.65625,23.4375 L20.15625,23.4375 C20.4140625,23.4375 20.625,23.2265625 20.625,22.96875 L20.625,22.03125 C20.625,21.7734375 20.4140625,21.5625 20.15625,21.5625 Z M20.15625,6.5625 L12.65625,6.5625 C12.3984375,6.5625 12.1875,6.7734375 12.1875,7.03125 L12.1875,7.96875 C12.1875,8.2265625 12.3984375,8.4375 12.65625,8.4375 L20.15625,8.4375 C20.4140625,8.4375 20.625,8.2265625 20.625,7.96875 L20.625,7.03125 C20.625,6.7734375 20.4140625,6.5625 20.15625,6.5625 Z M8.4375,12.1875 L6.5625,12.1875 C5.52539062,12.1875 4.6875,13.03125 4.6875,14.0625 L4.6875,15.9375 C4.6875,16.96875 5.52539062,17.8125 6.5625,17.8125 L8.4375,17.8125 C9.47460938,17.8125 10.3125,16.96875 10.3125,15.9375 L10.3125,14.0625 C10.3125,13.03125 9.47460938,12.1875 8.4375,12.1875 Z M8.4375,15.9375 L6.5625,15.9375 L6.5625,14.0625 L8.4375,14.0625 L8.4375,15.9375 Z" id="Shape"></path>
                        </g>
                    </g>
                </g>
            </g>
        </g>
    </g>
</svg>