<?xml version="1.0" encoding="UTF-8"?>
<svg width="30px" height="30px" viewBox="0 0 30 30" version="1.1" xmlns="http://www.w3.org/2000/svg" xmlns:xlink="http://www.w3.org/1999/xlink">
    <title>envelope-open-text</title>
    <g id="Page-1" stroke="none" stroke-width="1" fill="none" fill-rule="evenodd">
        <g id="Case-Study-Allegria-Copy" transform="translate(-1046.000000, -1058.000000)" fill="#9B98AE" fill-rule="nonzero">
            <g id="Group-19" transform="translate(0.000000, 979.000000)">
                <g id="Group-18-Copy-2" transform="translate(926.000000, 50.000000)">
                    <g id="Group-17" transform="translate(20.000000, 29.000000)">
                        <g id="envelope-open-text" transform="translate(100.000000, 0.000000)">
                            <path d="M20.625,14.53125 L20.625,13.59375 C20.625,13.3347656 20.4152344,13.125 20.15625,13.125 L9.84375,13.125 C9.58476563,13.125 9.375,13.3347656 9.375,13.59375 L9.375,14.53125 C9.375,14.7902344 9.58476563,15 9.84375,15 L20.15625,15 C20.4152344,15 20.625,14.7902344 20.625,14.53125 Z M9.84375,11.25 L20.15625,11.25 C20.4152344,11.25 20.625,11.0402344 20.625,10.78125 L20.625,9.84375 C20.625,9.58476563 20.4152344,9.375 20.15625,9.375 L9.84375,9.375 C9.58476563,9.375 9.375,9.58476563 9.375,9.84375 L9.375,10.78125 C9.375,11.0402344 9.58476563,11.25 9.84375,11.25 Z M28.9798828,9.63984375 C28.8638672,9.54433594 27.6796875,8.59042969 26.25,7.44082031 L26.25,5.625 C26.25,4.58964844 25.4103516,3.75 24.375,3.75 L21.6521484,3.75 C21.4101562,3.55605469 21.2003906,3.3890625 21.0544922,3.27304687 C19.7595703,2.23769531 17.5453125,0 15,0 C12.4681641,0 10.275,2.21015625 8.94492188,3.27304687 C8.79667969,3.39082031 8.5875,3.55839844 8.34726563,3.75 L5.625,3.75 C4.58964844,3.75 3.75,4.58964844 3.75,5.625 L3.75,7.44023438 C2.31328125,8.59511719 1.12792969,9.55019531 1.0265625,9.63339844 C0.376815564,10.1675076 0,10.964372 0,11.8054687 L0,27.1875 C0,28.7408203 1.25917969,30 2.8125,30 L27.1875,30 C28.7408203,30 30,28.7408203 30,27.1875 L30,11.8072266 C30,10.96875 29.6261719,10.1736328 28.9798828,9.63984375 Z M15,1.875 C16.2755859,1.875 17.615625,2.8546875 18.6996094,3.75 L11.3027344,3.75 C12.3884766,2.85527344 13.7296875,1.875 15,1.875 Z M5.625,5.625 L24.375,5.625 L24.375,15.7822266 C22.4806641,17.3056641 20.5488281,18.8548828 19.3013672,19.8451172 C18.3140625,20.6320313 16.3605469,22.5216797 15,22.5 C13.6400391,22.5222656 11.6859375,20.6320313 10.6986328,19.8445313 C9.45117188,18.8542969 7.52050781,17.3056641 5.625,15.7816406 L5.625,5.625 Z M1.875,11.8054687 C1.875,11.5242187 1.99980469,11.2599609 2.2171875,11.08125 C2.28984375,11.0214844 2.89804688,10.5316406 3.75,9.84609375 L3.75,14.2728516 C3.07441406,13.7291016 2.43105469,13.2105469 1.875,12.7623047 L1.875,11.8054688 L1.875,11.8054687 Z M28.125,27.1875 C28.125,27.7042969 27.7042969,28.125 27.1875,28.125 L2.8125,28.125 C2.29570313,28.125 1.875,27.7042969 1.875,27.1875 L1.875,15.1705078 C4.37988281,17.1884766 7.69394531,19.8533203 9.53203125,21.3123047 C10.7326172,22.2708984 12.8566406,24.3902344 15,24.3744141 C17.1357422,24.3896484 19.2345703,22.2966797 20.4673828,21.3123047 C22.3078125,19.8515625 25.6195312,17.1878906 28.125,15.1699219 L28.125,27.1875 Z M28.125,12.7623047 C27.5613281,13.2164062 26.9373047,13.7197266 26.25,14.2734375 L26.25,9.84726562 C27.0960938,10.528125 27.703125,11.0173828 27.7851562,11.0847656 C28.0013672,11.2634766 28.125,11.5265625 28.125,11.8072266 L28.125,12.7623047 L28.125,12.7623047 Z" id="Shape"></path>
                        </g>
                    </g>
                </g>
            </g>
        </g>
    </g>
</svg>