<?xml version="1.0" encoding="UTF-8"?>
<svg width="30px" height="30px" viewBox="0 0 30 30" version="1.1" xmlns="http://www.w3.org/2000/svg" xmlns:xlink="http://www.w3.org/1999/xlink">
    <title>pencil-ruler</title>
    <g id="Page-1" stroke="none" stroke-width="1" fill="none" fill-rule="evenodd">
        <g id="Case-Study-Allegria-Copy" transform="translate(-331.000000, -1058.000000)" fill="#9B98AE" fill-rule="nonzero">
            <g id="Group-19" transform="translate(0.000000, 979.000000)">
                <g id="Group-18" transform="translate(212.000000, 50.000000)">
                    <g id="Group-17" transform="translate(20.000000, 29.000000)">
                        <g id="pencil-ruler" transform="translate(99.000000, 0.000000)">
                            <path d="M29.3982456,21.528655 L22.2152047,14.345614 L25.1040936,11.4567251 L29.1187135,7.44152047 C30.2157895,6.34444444 30.2152047,4.56608187 29.1187135,3.46900585 L26.4725146,0.822807018 C25.9239766,0.274269006 25.2046784,0 24.4859649,0 C23.7672515,0 23.0479532,0.274269006 22.4994152,0.822807018 L18.4847953,4.83684211 L15.5959064,7.72573099 L8.41345029,0.543274854 C8.05146199,0.18128655 7.57660819,0 7.10175439,0 C6.62690058,0 6.15263158,0.18128655 5.79005848,0.543274854 L0.544444444,5.78947368 C-0.179532164,6.51403509 -0.180116959,7.68830409 0.544444444,8.4128655 L7.72573099,15.594152 L1.11695906,22.2023392 L0.0198830409,28.4859649 C-0.139181287,29.4 0.676023392,30.0590643 1.45789474,29.9222222 L7.74093567,28.8204678 L14.345614,22.2146199 L21.528655,29.3976608 C21.8760384,29.7459285 22.3478663,29.9414362 22.8397661,29.9409366 C23.3146199,29.9409366 23.7894737,29.7596491 24.151462,29.3976608 L29.3982456,24.1520468 C30.122807,23.4274854 30.122807,22.2532164 29.3982456,21.528655 Z M23.8222222,2.14619883 C24.0614035,1.90701754 24.9099415,1.90701754 25.1491228,2.14619883 L27.7953216,4.79181287 C28.1608187,5.15730994 28.1608187,5.75204678 27.7953216,6.11754386 L25.1035088,8.80935673 L21.1304094,4.83625731 L23.8222222,2.14619883 Z M1.86725146,7.1128655 L7.10175439,1.87777778 L10.3736842,5.14619883 L8.09122807,7.42865497 C7.90877193,7.61111111 7.90877193,7.90760234 8.09122807,8.09005848 L8.75263158,8.75146199 C8.93508772,8.93391813 9.23157895,8.93391813 9.41403509,8.75146199 L11.697076,6.46842105 L14.2760234,9.04444444 L9.04210526,14.2777778 L1.86725146,7.1128655 Z M6.83567251,27.0795322 L2.01754386,27.9245614 L2.85789474,23.1076023 L19.8070175,6.16023392 L23.780117,10.1333333 L6.83567251,27.0795322 Z M22.8520468,28.0748538 L15.6672515,20.8935673 L20.8994152,15.6608187 L23.4795322,18.2380117 L21.1900585,20.5280702 C21.0076023,20.7105263 21.0076023,21.0070175 21.1900585,21.1894737 L21.851462,21.8508772 C22.0339181,22.0333333 22.3304094,22.0333333 22.5128655,21.8508772 L24.8035088,19.5602339 L28.0748538,22.8280702 L22.8520468,28.0748538 L22.8520468,28.0748538 Z" id="Shape"></path>
                        </g>
                    </g>
                </g>
            </g>
        </g>
    </g>
</svg>